<?xml version="1.0" standalone="no"?>
<!DOCTYPE svg PUBLIC "-//W3C//DTD SVG 20010904//EN"
 "http://www.w3.org/TR/2001/REC-SVG-20010904/DTD/svg10.dtd">
<svg version="1.0" xmlns="http://www.w3.org/2000/svg"
 width="1080.000000pt" height="1080.000000pt" viewBox="0 0 1080.000000 1080.000000"
 preserveAspectRatio="xMidYMid meet">
<metadata>
Created by potrace 1.14, written by Peter Selinger 2001-2017
</metadata>
<g transform="translate(0.000000,1080.000000) scale(0.100000,-0.100000)"
fill="#000000" stroke="none">
<path d="M4384 7500 c-130 -34 -259 -117 -341 -219 -45 -56 -123 -205 -123
-235 0 -13 -19 -16 -122 -18 l-123 -3 -3 -102 -3 -103 110 0 c107 0 111 -1
115 -22 3 -13 10 -48 16 -78 7 -30 32 -97 57 -149 81 -170 240 -298 428 -346
76 -19 234 -19 310 0 264 67 465 296 500 568 6 48 8 49 63 75 46 22 72 27 132
27 60 0 86 -5 132 -27 55 -26 57 -27 63 -75 36 -274 235 -501 500 -568 76 -19
234 -19 310 0 188 48 347 176 428 346 25 52 51 121 57 154 20 104 8 95 131 95
l110 0 -3 103 -3 102 -119 5 -118 5 -24 64 c-68 180 -233 335 -419 394 -57 18
-93 22 -200 22 -115 0 -138 -4 -203 -27 -105 -38 -175 -83 -257 -164 -70 -69
-135 -175 -164 -265 l-12 -37 -52 21 c-75 30 -240 30 -313 0 l-51 -22 -31 82
c-74 192 -247 346 -448 397 -99 26 -233 26 -330 0z m316 -6 c36 -8 99 -31 140
-51 140 -69 287 -241 331 -390 7 -24 13 -43 13 -43 1 0 29 10 61 22 47 17 81
22 155 22 74 0 108 -5 155 -22 32 -12 60 -22 61 -22 1 0 10 24 19 53 32 97 78
170 160 253 130 130 280 194 456 194 106 0 193 -21 289 -67 136 -67 284 -238
325 -377 l12 -41 122 -3 121 -3 0 -94 0 -94 -112 -3 -113 -3 -7 -53 c-21 -142
-81 -256 -192 -367 -138 -137 -282 -192 -476 -182 -115 6 -170 20 -263 68
-197 100 -317 278 -352 522 -5 33 -12 40 -58 65 -46 24 -63 27 -147 27 -87 0
-100 -3 -150 -30 -52 -29 -55 -32 -58 -75 -1 -25 -14 -81 -27 -125 -68 -226
-261 -400 -493 -445 -85 -17 -240 -8 -315 19 -241 85 -411 285 -445 526 l-7
50 -113 3 -112 3 0 94 0 94 121 3 121 3 24 64 c74 197 252 357 449 405 80 19
224 19 305 0z"/>
<path d="M4431 7315 c-282 -79 -422 -387 -297 -651 137 -289 519 -353 746
-125 237 236 147 642 -168 761 -75 29 -207 36 -281 15z m210 -9 c163 -35 284
-142 340 -302 17 -48 20 -77 17 -160 -3 -93 -6 -107 -41 -176 -43 -88 -132
-177 -212 -214 -229 -105 -496 -6 -607 224 -41 86 -50 208 -23 308 43 158 176
284 338 319 81 17 108 18 188 1z"/>
<path d="M6138 7320 c-103 -26 -212 -104 -271 -193 -59 -89 -80 -165 -75 -282
3 -90 7 -107 40 -176 155 -327 604 -362 802 -64 161 242 73 557 -189 682 -69
33 -86 36 -173 39 -54 2 -114 -1 -134 -6z m215 -15 c159 -41 274 -147 328
-301 17 -49 20 -77 17 -159 -6 -131 -39 -208 -130 -299 -287 -285 -768 -85
-768 319 0 292 276 512 553 440z"/>
<path d="M3006 5107 c3 -10 9 -15 12 -12 3 3 0 11 -7 18 -10 9 -11 8 -5 -6z"/>
<path d="M2548 4948 c-16 -5 -28 -14 -28 -20 0 -6 6 -6 15 2 8 7 24 10 35 7
11 -3 20 -1 20 3 0 15 -14 18 -42 8z"/>
<path d="M2896 4641 c-3 -4 6 -6 19 -3 14 2 25 6 25 8 0 8 -39 4 -44 -5z"/>
<path d="M2958 4643 c7 -3 16 -2 19 1 4 3 -2 6 -13 5 -11 0 -14 -3 -6 -6z"/>
</g>
</svg>
